#!OML:ASF G:\JayActor3\Patient Classification 1\Patient 1\Session 5\male.ASF
:FULLY-SPECIFIED
:DEGREES
709
root 17.6454 15.8418 -5.65813 -104.765 -88.3176 118.329
lowerback 36.4355 -1.02635 1.89289
upperback 9.59808 -1.97342 -1.98439
thorax -7.585 -1.35159 -2.29301
lowerneck 2.22848 1.27238 4.07939
upperneck -23.8825 1.38199 -0.626133
head -7.6663 0.0238651 -0.953945
rclavicle -2.18663e-014 -2.46493e-014
rhumerus -27.2665 1.49179 -89.738
rradius 48.4329
rwrist -3.15412
rhand -20.6918 -13.0074
rfingers 7.12502
rthumb 5.67189 -42.9115
lclavicle -2.18663e-014 -2.46493e-014
lhumerus -27.6914 -0.630657 82.4956
lradius 37.6473
lwrist 23.1527
lhand -20.4124 14.8337
lfingers 7.12502
lthumb 5.94169 44.7304
rfemur -47.1525 -0.203731 22.8282
rtibia 76.5535
rfoot -4.59487 -2.06206
rtoes -6.67433
lfemur -61.5612 5.42558 -25.6956
ltibia 37.661
lfoot 29.6084 -3.00147
ltoes -6.53234
710
root 17.7946 15.8259 -5.67954 -100.607 -88.2814 114.07
lowerback 36.5817 -1.08161 1.88909
upperback 9.61717 -2.04671 -1.9866
thorax -7.6187 -1.38751 -2.26282
lowerneck 2.2805 1.27054 4.0622
upperneck -23.8894 1.38312 -0.620839
head -7.67802 0.0259631 -0.9498
rclavicle 1.21259e-014 2.34566e-014
rhumerus -27.2719 1.56899 -89.775
rradius 48.4404
rwrist -3.1174
rhand -20.7208 -12.9397
rfingers 7.12502
rthumb 5.64395 -42.8446
lclavicle 1.21259e-014 2.34566e-014
lhumerus -27.7418 -0.647426 82.4945
lradius 37.6669
lwrist 23.1748
lhand -20.4755 14.8385
lfingers 7.12502
lthumb 5.88075 44.7369
rfemur -47.7234 -0.261981 22.8236
rtibia 76.7665
rfoot -4.76489 -1.94362
rtoes -6.84736
lfemur -61.5163 5.44246 -25.6414
ltibia 37.3973
lfoot 29.5387 -3.1755
ltoes -5.80842
711
root 17.9408 15.8036 -5.70102 -96.2258 -88.2465 109.589
lowerback 36.6839 -1.13935 1.88098
upperback 9.64356 -2.12415 -1.98618
thorax -7.62885 -1.42504 -2.22694
lowerneck 2.30534 1.26831 4.05476
upperneck -23.8447 1.38788 -0.599617
head -7.66772 0.0293285 -0.941967
rclavicle -7.95139e-015 1.78906e-015
rhumerus -27.2673 1.63165 -89.806
rradius 48.3876
rwrist -3.04784
rhand -20.7648 -12.8184
rfingers 7.12502
rthumb 5.60139 -42.7244
lclavicle -7.95139e-015 1.78906e-015
lhumerus -27.7959 -0.667649 82.4873
lradius 37.6758
lwrist 23.1865
lhand -20.5671 14.8383
lfingers 7.12502
lthumb 5.79229 44.7391
rfemur -48.2672 -0.336594 22.8065
rtibia 76.9821
rfoot -4.98524 -1.7065
rtoes -6.96061
lfemur -61.5632 5.52988 -25.6679
ltibia 37.5401
lfoot 28.869 -3.50214
ltoes -5.37726
712
root 18.0842 15.7752 -5.72261 -91.5921 -88.2116 104.859
lowerback 36.7424 -1.19793 1.86813
upperback 9.67625 -2.20359 -1.98208
thorax -7.61655 -1.46321 -2.18489
lowerneck 2.29965 1.26583 4.06267
upperneck -23.7531 1.39487 -0.56994
head -7.63632 0.0332286 -0.933758
rclavicle 8.74653e-015 1.19271e-015
rhumerus -27.2577 1.66933 -89.8277
rradius 48.2816
rwrist -2.94769
rhand -20.8172 -12.6485
rfingers 7.12502
rthumb 5.55084 -42.5558
lclavicle 8.74653e-015 1.19271e-015
lhumerus -27.8445 -0.691732 82.4753
lradius 37.6641
lwrist 23.1863
lhand -20.6691 14.8448
lfingers 7.12502
lthumb 5.69384 44.7483
rfemur -48.7885 -0.433324 22.7881
rtibia 77.1979
rfoot -5.26163 -1.38325
rtoes -6.91553
lfemur -61.7152 5.67131 -25.7633
ltibia 38.1121
lfoot 27.6441 -3.92775
ltoes -5.21626
713
root 18.2252 15.7417 -5.74392 -86.7066 -88.1693 99.8755
lowerback 36.7669 -1.25745 1.85382
upperback 9.71433 -2.28434 -1.97674
thorax -7.58633 -1.50173 -2.14114
lowerneck 2.27359 1.2627 4.08268
upperneck -23.6356 1.4028 -0.533332
head -7.59275 0.0367159 -0.925166
rclavicle 1.49089e-014 2.24627e-014
rhumerus -27.2481 1.67761 -89.8388
rradius 48.1365
rwrist -2.83107
rhand -20.8795 -12.461
rfingers 7.12502
rthumb 5.49068 -42.3699
lclavicle 1.49089e-014 2.24627e-014
lhumerus -27.8862 -0.729661 82.4628
lradius 37.6324
lwrist 23.1798
lhand -20.762 14.8798
lfingers 7.12502
lthumb 5.60416 44.7857
rfemur -49.2842 -0.563233 22.7697
rtibia 77.4102
rfoot -5.59432 -0.995069
rtoes -6.70916
lfemur -61.9616 5.84586 -25.9156
ltibia 39.0919
lfoot 25.9633 -4.42865
ltoes -5.32538
714
root 18.3642 15.705 -5.76481 -81.684 -88.1189 94.7528
lowerback 36.773 -1.31837 1.84382
upperback 9.75468 -2.36493 -1.97052
thorax -7.54723 -1.54004 -2.0993
lowerneck 2.23605 1.26025 4.10906
upperneck -23.5156 1.41229 -0.491724
head -7.54634 0.0399083 -0.91603
rclavicle 2.34566e-014 3.93594e-014
rhumerus -27.2478 1.65151 -89.8406
rradius 47.9754
rwrist -2.70682
rhand -20.9394 -12.2967
rfingers 7.12502
rthumb 5.43288 -42.207
lclavicle 2.34566e-014 3.93594e-014
lhumerus -27.9173 -0.775869 82.4505
lradius 37.5789
lwrist 23.1533
lhand -20.8348 14.9455
lfingers 7.12502
lthumb 5.53382 44.8532
rfemur -49.7509 -0.726996 22.7573
rtibia 77.609
rfoot -5.96782 -0.561408
rtoes -6.34191
lfemur -62.282 6.03045 -26.0908
ltibia 40.4302
lfoot 23.9527 -4.97712
ltoes -5.65384
715
root 18.5017 15.6674 -5.78509 -76.7934 -88.0663 89.7592
lowerback 36.782 -1.37834 1.84922
upperback 9.79012 -2.43811 -1.96272
thorax -7.51443 -1.57477 -2.06655
lowerneck 2.19278 1.25531 4.13454
upperneck -23.4103 1.41757 -0.446828
head -7.50406 0.0401422 -0.905367
rclavicle -1.21259e-014 -1.59028e-014
rhumerus -27.2704 1.58992 -89.8297
rradius 47.8252
rwrist -2.59556
rhand -20.988 -12.194
rfingers 7.12502
rthumb 5.38598 -42.1055
lclavicle -1.21259e-014 -1.59028e-014
lhumerus -27.9412 -0.83724 82.443
lradius 37.5101
lwrist 23.1121
lhand -20.8654 15.0532
lfingers 7.12502
lthumb 5.50433 44.9617
rfemur -50.1873 -0.913167 22.7576
rtibia 77.7826
rfoot -6.34998 -0.094179
rtoes -5.85286
lfemur -62.6522 6.21421 -26.2555
ltibia 42.0629
lfoot 21.7356 -5.54682
ltoes -6.16026
716
root 18.6382 15.6309 -5.80451 -72.3305 -88.0125 85.1933
lowerback 36.8014 -1.4344 1.86617
upperback 9.81604 -2.5015 -1.95481
thorax -7.49557 -1.60476 -2.04305
lowerneck 2.15822 1.25068 4.15317
upperneck -23.3353 1.4225 -0.399666
head -7.47349 0.0394411 -0.892926
rclavicle 1.98785e-015 -2.5842e-015
rhumerus -27.3253 1.49846 -89.8096
rradius 47.6974
rwrist -2.5066
rhand -21.0361 -12.1619
rfingers 7.12502
rthumb 5.33951 -42.0746
lclavicle 1.98785e-015 -2.5842e-015
lhumerus -27.9622 -0.901069 82.4389
lradius 37.4247
lwrist 23.0552
lhand -20.8571 15.1809
lfingers 7.12502
lthumb 5.51235 45.0892
rfemur -50.5989 -1.10854 22.7666
rtibia 77.9211
rfoot -6.70541 0.390705
rtoes -5.28556
lfemur -63.0492 6.38889 -26.3896
ltibia 43.927
lfoot 19.4007 -6.11212
ltoes -6.86899
717
root 18.7738 15.5969 -5.82302 -68.4522 -87.9631 81.2168
lowerback 36.8383 -1.48334 1.89113
upperback 9.82779 -2.552 -1.94583
thorax -7.49788 -1.62855 -2.02675
lowerneck 2.13656 1.24694 4.16389
upperneck -23.2944 1.4271 -0.355071
head -7.45655 0.0382038 -0.880152
rclavicle 2.40529e-014 9.14409e-015
rhumerus -27.4161 1.38576 -89.7803
rradius 47.6031
rwrist -2.44855
rhand -21.0667 -12.2084
rfingers 7.12502
rthumb 5.30992 -42.1218
lclavicle 2.40529e-014 9.14409e-015
lhumerus -27.9882 -0.957122 82.4376
lradius 37.3347
lwrist 22.987
lhand -20.8243 15.3093
lfingers 7.12502
lthumb 5.54401 45.2168
rfemur -50.9978 -1.30571 22.7862
rtibia 78.0222
rfoot -6.99955 0.874586
rtoes -4.66859
lfemur -63.4577 6.5546 -26.4825
ltibia 45.9693
lfoot 17.0458 -6.62578
ltoes -7.74294
718
root 18.9086 15.5662 -5.84048 -65.2791 -87.9318 77.9564
lowerback 36.8902 -1.5224 1.92558
upperback 9.82497 -2.58555 -1.93409
thorax -7.52075 -1.64428 -2.01822
lowerneck 2.12394 1.2446 4.16762
upperneck -23.2842 1.43085 -0.318692
head -7.45131 0.0366939 -0.868972
rclavicle -4.57205e-015 9.93923e-016
rhumerus -27.5358 1.25893 -89.7406
rradius 47.53
rwrist -2.41284
rhand -21.0992 -12.2731
rfingers 7.12502
rthumb 5.27861 -42.1874
lclavicle -4.57205e-015 9.93923e-016
lhumerus -28.0191 -0.997562 82.4385
lradius 37.249
lwrist 22.9189
lhand -20.764 15.4346
lfingers 7.12502
lthumb 5.60219 45.3405
rfemur -51.4022 -1.49833 22.8273
rtibia 78.0879
rfoot -7.2058 1.32838
rtoes -4.0258
lfemur -63.87 6.72166 -26.5258
ltibia 48.1507
lfoot 14.755 -7.0527
ltoes -8.72394
